<?xml version="1.0" encoding="utf-8"?>
<!-- Generator: Adobe Illustrator 23.0.0, SVG Export Plug-In . SVG Version: 6.00 Build 0)  -->
<svg version="1.1" id="Слой_1" xmlns="http://www.w3.org/2000/svg" xmlns:xlink="http://www.w3.org/1999/xlink" x="0px" y="0px"
	 viewBox="0 0 178 153" style="enable-background:new 0 0 178 153;" xml:space="preserve">
<style type="text/css">
	.st0{fill:#FF9900;stroke:#FF9900;}
	.st1{fill-rule:evenodd;clip-rule:evenodd;}
</style>
<circle class="st0" cx="60" cy="93" r="59.5"/>
<path class="st1" d="M114,47c-8.84,0-16,7.16-16,16s7.16,16,16,16s16-7.16,16-16S122.84,47,114,47z M96,63c0-9.94,8.06-18,18-18
	s18,8.06,18,18s-8.06,18-18,18S96,72.94,96,63z"/>
<path class="st1" d="M114.5,2.01c-2.75,0-5.38,1.09-7.33,3.03c-1.94,1.94-3.04,4.58-3.04,7.33v0.97v0c-0.01,2.02-0.61,4-1.72,5.69
	c-1.12,1.69-2.7,3.01-4.56,3.81c-0.12,0.05-0.26,0.08-0.39,0.08h-0.25c-1.84,0.77-3.87,0.99-5.84,0.63
	c-2.04-0.37-3.92-1.34-5.4-2.79l-0.01-0.01l-0.34-0.34c-0.96-0.96-2.11-1.73-3.36-2.25c-1.26-0.52-2.61-0.79-3.97-0.79
	c-1.36,0-2.71,0.27-3.97,0.79c-1.26,0.52-2.4,1.29-3.36,2.25l0,0c-0.96,0.96-1.73,2.1-2.25,3.36s-0.79,2.61-0.79,3.97
	c0,1.36,0.27,2.71,0.79,3.97c0.52,1.26,1.29,2.4,2.25,3.36l0.35,0.35c1.45,1.48,2.42,3.36,2.79,5.41c0.37,2.03,0.12,4.12-0.7,6.01
	c-0.72,1.94-2.01,3.62-3.69,4.83c-1.69,1.21-3.71,1.89-5.79,1.93l-0.02,0h-0.51c-2.75,0-5.38,1.09-7.33,3.03
	c-1.94,1.94-3.03,4.58-3.03,7.33c0,2.75,1.09,5.38,3.03,7.33c1.94,1.94,4.58,3.03,7.33,3.03h0.97c2.02,0.01,4,0.61,5.69,1.73
	c1.69,1.12,3.01,2.7,3.81,4.56c0.84,1.9,1.08,4,0.71,6.04c-0.37,2.04-1.34,3.92-2.79,5.4l-0.01,0.01l-0.34,0.34
	c-0.96,0.96-1.73,2.11-2.25,3.36c-0.52,1.26-0.79,2.61-0.79,3.97c0,1.36,0.27,2.71,0.79,3.97c0.52,1.26,1.29,2.4,2.25,3.36l0,0
	c0.96,0.96,2.1,1.73,3.36,2.25c1.26,0.52,2.61,0.79,3.97,0.79c1.36,0,2.71-0.27,3.97-0.79c1.26-0.52,2.4-1.29,3.36-2.25l0.35-0.35
	c1.48-1.45,3.36-2.42,5.41-2.79c2.03-0.37,4.12-0.12,6.01,0.71c1.94,0.72,3.62,2.01,4.83,3.69c1.21,1.69,1.88,3.71,1.93,5.79v0.02
	v0.51c0,2.75,1.09,5.38,3.03,7.33c1.94,1.94,4.58,3.04,7.33,3.04c2.75,0,5.38-1.09,7.33-3.04c1.94-1.94,3.03-4.58,3.03-7.33v-0.97v0
	c0.01-2.02,0.61-4,1.72-5.69c1.12-1.69,2.7-3.01,4.56-3.81c1.9-0.84,4-1.08,6.04-0.71c2.04,0.37,3.92,1.34,5.4,2.79l0.01,0.01
	l0.34,0.34c0.96,0.96,2.1,1.73,3.36,2.25c1.26,0.52,2.61,0.79,3.97,0.79c1.36,0,2.71-0.27,3.97-0.79c1.26-0.52,2.4-1.29,3.36-2.25h0
	c0.96-0.96,1.73-2.11,2.25-3.36c0.52-1.26,0.79-2.61,0.79-3.97c0-1.36-0.27-2.71-0.79-3.97c-0.52-1.26-1.29-2.4-2.25-3.36
	l-0.35-0.35c-1.45-1.48-2.42-3.36-2.79-5.41c-0.37-2.04-0.12-4.14,0.71-6.04c0.8-1.86,2.12-3.44,3.81-4.56
	c1.69-1.12,3.67-1.72,5.69-1.73h0h0.51c2.75,0,5.38-1.09,7.33-3.03c1.94-1.94,3.03-4.58,3.03-7.33c0-2.75-1.09-5.38-3.03-7.33
	c-1.94-1.94-4.58-3.03-7.33-3.03h-0.97h0c-2.02-0.01-4-0.61-5.69-1.73c-1.69-1.12-3.01-2.7-3.81-4.56
	c-0.05-0.12-0.08-0.26-0.08-0.39v-0.25c-0.77-1.84-0.99-3.87-0.63-5.84c0.37-2.04,1.34-3.92,2.79-5.4l0.01-0.01l0.34-0.34
	c0.96-0.96,1.73-2.11,2.25-3.36c0.52-1.26,0.79-2.61,0.79-3.97c0-1.36-0.27-2.71-0.79-3.97c-0.52-1.26-1.29-2.4-2.25-3.36v0
	c-0.96-0.96-2.1-1.73-3.36-2.25c-1.26-0.52-2.61-0.79-3.97-0.79c-1.36,0-2.71,0.27-3.97,0.79c-1.26,0.52-2.4,1.29-3.36,2.25
	l-0.35,0.35c-1.48,1.45-3.37,2.42-5.4,2.79c-2.04,0.37-4.14,0.12-6.04-0.71c-1.86-0.8-3.44-2.12-4.56-3.81
	c-1.12-1.69-1.72-3.66-1.72-5.69v0v-0.51c0-2.75-1.09-5.38-3.04-7.33C119.88,3.1,117.25,2.01,114.5,2.01z M105.76,3.62
	C108.07,1.3,111.22,0,114.5,0s6.43,1.3,8.74,3.62c2.32,2.32,3.62,5.46,3.62,8.74v0.51c0,0,0,0,0,0c0.01,1.63,0.49,3.23,1.39,4.59
	c0.9,1.36,2.18,2.43,3.68,3.07l0.01,0c1.53,0.68,3.23,0.88,4.87,0.58c1.64-0.3,3.16-1.08,4.36-2.25c0,0,0,0,0,0l0.33-0.33
	c0,0,0,0,0,0c1.15-1.15,2.51-2.06,4.01-2.68c1.5-0.62,3.11-0.94,4.74-0.94c1.63,0,3.23,0.32,4.74,0.94c1.5,0.62,2.86,1.53,4.01,2.68
	c1.15,1.15,2.06,2.51,2.68,4.01c0.62,1.5,0.94,3.11,0.94,4.74c0,1.63-0.32,3.23-0.94,4.74c-0.62,1.5-1.54,2.86-2.68,4.01l-0.33,0.33
	c0,0,0,0,0,0c-1.17,1.2-1.95,2.71-2.25,4.36c-0.3,1.65-0.1,3.34,0.58,4.87c0.06,0.13,0.09,0.27,0.09,0.4v0.24
	c0.65,1.42,1.69,2.63,2.99,3.5c1.36,0.9,2.96,1.38,4.59,1.39h0.96c3.28,0,6.43,1.3,8.74,3.62c2.32,2.32,3.62,5.46,3.62,8.74
	c0,3.28-1.3,6.42-3.62,8.74c-2.32,2.32-5.46,3.62-8.74,3.62h-0.51c0,0,0,0,0,0c-1.63,0.01-3.23,0.49-4.59,1.39
	c-1.36,0.9-2.43,2.18-3.07,3.68l0,0.01c-0.68,1.53-0.88,3.23-0.58,4.87c0.3,1.64,1.08,3.16,2.25,4.36c0,0,0,0,0,0l0.33,0.33
	c0,0,0,0,0,0c1.15,1.15,2.06,2.51,2.68,4.01c0.62,1.5,0.94,3.11,0.94,4.74c0,1.63-0.32,3.23-0.94,4.74
	c-0.62,1.5-1.53,2.86-2.68,4.01c-1.15,1.15-2.51,2.06-4.01,2.68c-1.5,0.62-3.11,0.94-4.74,0.94s-3.23-0.32-4.74-0.94
	c-1.5-0.62-2.87-1.53-4.01-2.68l0,0l-0.33-0.33c0,0,0,0,0,0c-1.2-1.17-2.71-1.95-4.36-2.25c-1.65-0.3-3.34-0.1-4.87,0.58l-0.01,0.01
	c-1.5,0.64-2.78,1.71-3.68,3.07c-0.9,1.36-1.39,2.96-1.39,4.59c0,0,0,0,0,0v0.96c0,3.28-1.3,6.42-3.62,8.74s-5.46,3.62-8.74,3.62
	c-3.28,0-6.43-1.3-8.74-3.62s-3.62-5.46-3.62-8.74v-0.5c-0.04-1.68-0.58-3.3-1.56-4.66c-0.98-1.37-2.34-2.41-3.92-2.99
	c-0.01,0-0.02-0.01-0.03-0.01c-0.01,0-0.02-0.01-0.03-0.01c-1.53-0.67-3.23-0.88-4.87-0.58c-1.64,0.3-3.16,1.08-4.36,2.25
	c0,0,0,0,0,0l-0.33,0.33c-1.15,1.15-2.51,2.06-4.01,2.68c-1.5,0.62-3.11,0.94-4.74,0.94c-1.63,0-3.23-0.32-4.74-0.94
	s-2.86-1.53-4.01-2.68c-1.15-1.15-2.06-2.51-2.68-4.01c-0.62-1.5-0.94-3.11-0.94-4.73c0-1.63,0.32-3.23,0.94-4.74
	c0.62-1.5,1.53-2.86,2.68-4.01c0,0,0,0,0,0l0.33-0.33c0,0,0,0,0,0c1.17-1.2,1.95-2.71,2.25-4.36c0.3-1.65,0.1-3.34-0.58-4.87l0-0.01
	c-0.64-1.5-1.71-2.78-3.07-3.68c-1.36-0.9-2.96-1.38-4.59-1.39c0,0,0,0,0,0h-0.96c-3.28,0-6.42-1.3-8.74-3.62
	C52.3,70.38,51,67.23,51,63.95c0-3.28,1.3-6.42,3.62-8.74c2.32-2.32,5.46-3.62,8.74-3.62h0.5c1.68-0.04,3.3-0.58,4.66-1.56
	c1.37-0.98,2.41-2.34,2.99-3.92c0.01-0.02,0.02-0.04,0.02-0.06c0.68-1.53,0.88-3.23,0.58-4.87c-0.3-1.64-1.08-3.16-2.25-4.36
	l-0.34-0.34c-1.15-1.15-2.06-2.51-2.68-4.01c-0.62-1.5-0.94-3.11-0.94-4.74c0-1.63,0.32-3.23,0.94-4.74s1.53-2.86,2.68-4.01
	c1.15-1.15,2.51-2.06,4.01-2.68c1.5-0.62,3.11-0.94,4.74-0.94c1.63,0,3.23,0.32,4.74,0.94c1.5,0.62,2.86,1.53,4.01,2.68c0,0,0,0,0,0
	l0.34,0.34c1.2,1.17,2.71,1.95,4.36,2.25c1.65,0.3,3.34,0.1,4.87-0.58c0.13-0.06,0.27-0.09,0.4-0.09h0.24
	c1.42-0.65,2.63-1.69,3.5-2.99c0.9-1.36,1.39-2.96,1.39-4.59v-0.96C102.13,9.09,103.44,5.94,105.76,3.62z"/>
</svg>
