<?xml version="1.0" encoding="utf-8"?>
<!-- Generator: Adobe Illustrator 23.0.0, SVG Export Plug-In . SVG Version: 6.00 Build 0)  -->
<svg version="1.1" id="Слой_1" xmlns="http://www.w3.org/2000/svg" xmlns:xlink="http://www.w3.org/1999/xlink" x="0px" y="0px"
	 viewBox="0 0 178 137" style="enable-background:new 0 0 178 137;" xml:space="preserve">
<style type="text/css">
	.st0{fill:#FF9900;}
	.st1{fill-rule:evenodd;clip-rule:evenodd;}
</style>
<circle class="st0" cx="60" cy="77" r="60"/>
<path class="st1" d="M89.13,15.49c0.27-0.47,0.87-0.63,1.33-0.36l57.05,33.04c0.47,0.27,0.63,0.87,0.36,1.34
	c-0.27,0.47-0.87,0.63-1.33,0.36L89.49,16.83C89.02,16.56,88.86,15.96,89.13,15.49z"/>
<path class="st1" d="M111.5,1.87c2.13-1.23,4.54-1.87,7-1.87s4.87,0.65,7,1.87c0,0,0,0,0,0L171,27.88c2.13,1.23,3.89,2.99,5.12,5.12
	c1.23,2.13,1.88,4.54,1.88,6.99v52.01c0,2.46-0.65,4.87-1.88,6.99c-1.23,2.13-2.99,3.89-5.12,5.12l0,0l-45.5,26c0,0,0,0,0,0
	c-2.13,1.23-4.54,1.88-7,1.88s-4.87-0.65-7-1.88c0,0,0,0,0,0l-45.5-26l0,0c-2.13-1.23-3.89-2.99-5.12-5.12
	C59.65,96.87,59,94.46,59,92.01V39.99c0-2.46,0.65-4.87,1.88-6.99c1.23-2.13,2.99-3.89,5.12-5.12l0,0L111.5,1.87
	C111.5,1.88,111.5,1.88,111.5,1.87z M118.5,2c-2.11,0-4.18,0.55-6,1.61l0,0l-45.5,26c0,0,0,0,0,0c-1.82,1.05-3.33,2.57-4.39,4.39
	C61.56,35.82,61,37.89,61,40V92c0,2.1,0.56,4.17,1.61,5.99c1.05,1.82,2.57,3.33,4.39,4.39c0,0,0,0,0,0l45.5,26.01
	c1.82,1.05,3.89,1.61,6,1.61s4.18-0.55,6-1.61l0,0l45.5-26c0,0,0,0,0,0c1.82-1.05,3.34-2.57,4.39-4.39
	c1.05-1.82,1.61-3.89,1.61-5.99V40c0-2.1-0.56-4.17-1.61-5.99c-1.05-1.82-2.57-3.33-4.39-4.39c0,0,0,0,0,0l-45.5-26l0,0
	C122.68,2.55,120.61,2,118.5,2z"/>
<path class="st1" d="M61.13,33.49c0.27-0.47,0.88-0.63,1.35-0.36L118,64.9l55.52-31.76c0.47-0.27,1.08-0.11,1.35,0.36
	c0.27,0.47,0.11,1.06-0.36,1.33l-56.01,32.05c-0.31,0.17-0.68,0.17-0.99,0L61.49,34.82C61.02,34.55,60.86,33.95,61.13,33.49z"/>
<path class="st1" d="M118,65c0.55,0,1,0.44,1,0.98v64.05c0,0.54-0.45,0.98-1,0.98s-1-0.44-1-0.98V65.98C117,65.44,117.45,65,118,65z
	"/>
</svg>
