<?xml version="1.0" encoding="utf-8"?>
<!-- Generator: Adobe Illustrator 23.0.0, SVG Export Plug-In . SVG Version: 6.00 Build 0)  -->
<svg version="1.1" id="Слой_1" xmlns="http://www.w3.org/2000/svg" xmlns:xlink="http://www.w3.org/1999/xlink" x="0px" y="0px"
	 viewBox="0 0 60 60" style="enable-background:new 0 0 60 60;" xml:space="preserve">
<style type="text/css">
	.st0{fill:#ffffff;}
</style>
<path class="st0" d="M30,0c16.6,0,30,13.4,30,30S46.6,60,30,60S0,46.6,0,30S13.4,0,30,0z M12.9,37.1c0.1,1.8,0.4,3.1,0.8,4.2
	c0.9,2.3,2.7,4.1,5,5c1.1,0.4,2.3,0.7,4.2,0.8c1.8,0.1,2.4,0.1,7.1,0.1c4.7,0,5.3,0,7.1-0.1c1.8-0.1,3.1-0.4,4.2-0.8
	c1.1-0.4,2.2-1.1,3.1-2c0.9-0.9,1.6-1.9,2-3.1c0.4-1.1,0.7-2.3,0.8-4.2c0.1-1.8,0.1-2.4,0.1-7.1s0-5.3-0.1-7.1
	c-0.1-1.8-0.4-3.1-0.8-4.2c-0.4-1.1-1.1-2.2-2-3.1c-0.9-0.9-1.9-1.6-3.1-2c-1.1-0.4-2.3-0.7-4.2-0.8c-1.8-0.1-2.4-0.1-7.1-0.1
	s-5.3,0-7.1,0.1c-1.8,0.1-3.1,0.4-4.2,0.8c-1.1,0.4-2.2,1.1-3.1,2c-0.9,0.9-1.6,1.9-2,3.1c-0.4,1.1-0.7,2.3-0.8,4.2
	c-0.1,1.8-0.1,2.4-0.1,7.1S12.8,35.3,12.9,37.1z"/>
<path class="st0" d="M24.3,30c0,3.2,2.6,5.7,5.7,5.7s5.7-2.6,5.7-5.7s-2.6-5.7-5.7-5.7S24.3,26.8,24.3,30z"/>
<path class="st0" d="M16.6,19.8c0.3-0.7,0.7-1.4,1.3-2c0.6-0.6,1.2-1,2-1.3c0.6-0.2,1.5-0.5,3.2-0.6c1.8-0.1,2.4-0.1,7-0.1
	c4.6,0,5.1,0,7,0.1c1.7,0.1,2.6,0.4,3.2,0.6c0.7,0.3,1.4,0.7,2,1.3c0.6,0.6,1,1.2,1.3,2c0.2,0.6,0.5,1.5,0.6,3.2
	c0.1,1.8,0.1,2.4,0.1,7c0,4.6,0,5.1-0.1,7c-0.1,1.7-0.4,2.6-0.6,3.2c-0.3,0.7-0.7,1.4-1.3,2c-0.6,0.6-1.2,1-2,1.3
	c-0.6,0.2-1.5,0.5-3.2,0.6c-1.8,0.1-2.4,0.1-7,0.1c-4.6,0-5.1,0-7-0.1c-1.7-0.1-2.6-0.4-3.2-0.6c-1.5-0.6-2.7-1.8-3.3-3.3
	c-0.2-0.6-0.5-1.5-0.6-3.2c-0.1-1.8-0.1-2.4-0.1-7c0-4.6,0-5.1,0.1-7C16.1,21.4,16.3,20.4,16.6,19.8z M30,38.8c4.9,0,8.8-4,8.8-8.8
	s-4-8.8-8.8-8.8c-4.9,0-8.8,4-8.8,8.8S25.1,38.8,30,38.8z M20.8,22.9c1.1,0,2.1-0.9,2.1-2.1c0-1.1-0.9-2.1-2.1-2.1
	c-1.1,0-2.1,0.9-2.1,2.1C18.7,21.9,19.7,22.9,20.8,22.9z"/>
</svg>
